<svg xmlns="http://www.w3.org/2000/svg" version="1.0" preserveAspectRatio="xMidYMid meet" viewBox="125 19 362.5 230">
  <g transform="translate(0.000000,265.000000) scale(0.100000,-0.100000)" fill="#000000" stroke="none">
    <path d="M1690 2235 l-225 -225 1325 0 1325 0 -460 -460 -460 -460 315 0 315 0 525 525 525 525 -160 160 -160 160 -1320 0 -1320 0 -225 -225z"/>
    <path d="M1772 997 l-522 -522 157 -158 156 -157 1325 0 1325 0 220 220 221 220 -1317 0 c-724 0 -1317 3 -1317 7 0 5 204 212 452 460 l453 453 -315 0 -315 0 -523 -523z"/>
  </g>
</svg>