<?xml version="1.0" standalone="no"?>
<!DOCTYPE svg PUBLIC "-//W3C//DTD SVG 20010904//EN"
 "http://www.w3.org/TR/2001/REC-SVG-20010904/DTD/svg10.dtd">
<svg version="1.0" xmlns="http://www.w3.org/2000/svg"
 width="818.000000pt" height="757.000000pt" viewBox="0 0 818.000000 757.000000"
 preserveAspectRatio="xMidYMid meet">

<g transform="translate(0.000000,757.000000) scale(0.100000,-0.100000)"
fill="#000000" stroke="none">
<path d="M615 7465 c-252 -46 -462 -243 -525 -491 -20 -76 -20 -123 -20 -2859
0 -2738 0 -2783 20 -2859 47 -186 177 -344 355 -431 150 -74 42 -69 1500 -72
l1310 -4 3 -164 2 -165 -353 0 c-346 0 -354 0 -397 -22 -112 -57 -119 -216
-13 -288 l37 -25 1566 0 1566 0 37 25 c106 71 99 228 -12 287 -44 23 -47 23
-398 23 l-353 0 2 168 3 167 1095 3 1095 3 36 23 c45 30 69 80 69 144 0 54
-24 100 -73 136 l-28 21 -3237 5 c-2762 4 -3242 7 -3272 19 -92 37 -155 97
-197 186 l-28 60 -3 373 -3 372 3700 0 3701 0 0 -279 c0 -273 0 -279 23 -312
72 -107 212 -107 284 0 l23 34 0 2677 c0 2631 0 2678 -20 2754 -58 228 -225
400 -470 482 -53 18 -168 19 -3505 21 -2793 1 -3463 -1 -3520 -12z m6985 -356
c94 -45 159 -123 185 -224 13 -52 15 -308 15 -2252 l0 -2193 -3700 0 -3700 0
0 2184 c0 1435 3 2202 10 2237 25 130 109 225 235 265 32 10 724 12 3470 11
l3430 -2 55 -26z m-3000 -6521 l0 -168 -500 0 -500 0 0 168 0 167 500 0 500 0
0 -167z"/>
<path d="M1205 6801 c-77 -19 -127 -82 -127 -161 1 -27 8 -62 16 -78 21 -41
70 -80 109 -87 18 -3 1333 -4 2924 -3 l2892 3 28 21 c50 37 73 81 73 142 0 66
-24 111 -78 144 l-37 23 -2885 1 c-1587 1 -2899 -1 -2915 -5z"/>
<path d="M4855 6116 c-16 -7 -40 -25 -53 -38 -15 -17 -119 -294 -303 -804
-154 -428 -347 -966 -429 -1195 -83 -228 -153 -430 -156 -447 -9 -43 19 -115
57 -146 68 -58 159 -55 225 7 28 27 46 68 118 267 138 385 479 1334 685 1908
89 246 102 300 86 352 -9 31 -51 77 -87 96 -34 17 -103 17 -143 0z"/>
<path d="M1180 5614 c-43 -19 -68 -41 -87 -78 -22 -43 -20 -1064 2 -1150 47
-182 198 -343 378 -406 86 -31 240 -38 327 -16 186 47 338 174 411 343 45 104
49 165 49 686 0 456 -2 495 -19 532 -48 107 -172 137 -257 63 -19 -17 -40 -40
-47 -52 -9 -15 -13 -161 -17 -546 -5 -516 -5 -526 -27 -566 -26 -49 -83 -101
-132 -121 -90 -38 -222 -5 -286 70 -65 76 -65 76 -65 631 0 500 0 501 -23 540
-25 45 -93 86 -141 86 -17 -1 -47 -8 -66 -16z"/>
<path d="M2650 5608 c-57 -31 -90 -86 -89 -148 0 -38 25 -95 157 -358 l158
-313 -159 -317 c-155 -307 -159 -318 -155 -368 10 -123 146 -195 248 -133 47
29 51 36 160 252 l96 189 98 -194 c106 -207 130 -241 184 -259 106 -35 209 32
220 142 5 52 2 58 -154 371 l-159 318 158 314 c131 262 157 321 157 358 0 141
-161 216 -274 127 -17 -13 -65 -97 -127 -221 -55 -110 -103 -197 -107 -194 -3
4 -50 93 -103 199 -109 217 -132 244 -215 253 -40 5 -58 1 -94 -18z"/>
<path d="M5404 5611 c-49 -22 -80 -60 -95 -113 -7 -27 -9 -209 -7 -551 4 -459
6 -518 22 -567 53 -161 162 -295 296 -362 97 -49 175 -68 275 -68 295 0 537
207 584 501 7 38 11 260 11 549 0 450 -2 488 -19 525 -31 67 -86 105 -153 105
-49 0 -114 -37 -140 -78 l-23 -37 -5 -525 c-5 -516 -5 -526 -27 -566 -26 -49
-83 -101 -132 -121 -92 -39 -225 -5 -290 74 -61 74 -61 77 -61 626 l0 500 -25
43 c-27 46 -90 84 -141 84 -16 0 -47 -9 -70 -19z"/>
<path d="M6879 5607 c-27 -15 -52 -38 -66 -63 l-23 -39 3 -727 c2 -716 2 -727
23 -754 11 -15 32 -37 46 -47 33 -25 118 -34 158 -17 41 17 87 71 99 117 13
47 14 1360 1 1417 -12 54 -38 87 -90 114 -56 28 -96 28 -151 -1z"/>
<path d="M1170 3088 c-73 -38 -107 -108 -90 -185 12 -51 39 -84 90 -110 l44
-23 2886 0 2886 0 44 23 c53 26 80 61 89 113 15 82 -16 144 -89 182 l-44 22
-2886 0 -2886 0 -44 -22z"/>
<path d="M3851 1743 c-83 -41 -112 -160 -59 -240 45 -68 67 -73 308 -73 241 0
263 5 308 73 54 81 23 200 -61 240 -52 25 -446 25 -496 0z"/>
<path d="M7670 1159 c-60 -24 -102 -87 -102 -154 0 -169 203 -229 306 -91 31
41 29 139 -2 184 -44 60 -134 88 -202 61z"/>
</g>
</svg>
